<svg width="314" height="57" viewBox="0 0 314 57" fill="none" xmlns="http://www.w3.org/2000/svg">
<rect width="314" height="57" rx="28.5" fill="white"/>
<path d="M32.2557 36.2932C31.0016 36.2932 29.9104 36.0651 28.9821 35.6091C28.0538 35.1531 27.3371 34.5179 26.8323 33.7036C26.3274 32.8892 26.0749 31.9446 26.0749 30.8697H28.2248C28.2248 31.5375 28.3795 32.1563 28.6889 32.7264C28.9984 33.2801 29.4463 33.728 30.0326 34.07C30.6352 34.3958 31.3762 34.5586 32.2557 34.5586C33.4121 34.5586 34.3078 34.2818 34.943 33.728C35.5782 33.1743 35.8958 32.4821 35.8958 31.6515C35.8958 30.9674 35.7492 30.4218 35.456 30.0146C35.1629 29.5912 34.7639 29.2492 34.259 28.9886C33.7704 28.728 33.2003 28.5 32.5489 28.3045C31.9137 28.1091 31.2459 27.8892 30.5456 27.6449C29.2264 27.1889 28.2492 26.627 27.614 25.9593C26.9788 25.2752 26.6612 24.3876 26.6612 23.2964C26.645 22.3843 26.8567 21.5782 27.2964 20.8778C27.7362 20.1612 28.3551 19.6075 29.1531 19.2166C29.9674 18.8094 30.9283 18.6058 32.0358 18.6058C33.127 18.6058 34.0717 18.8094 34.8697 19.2166C35.6841 19.6238 36.3111 20.1856 36.7508 20.9023C37.2069 21.6189 37.443 22.4332 37.4593 23.3453H35.3095C35.3095 22.8729 35.1873 22.4088 34.943 21.9527C34.6987 21.4804 34.3241 21.0977 33.8192 20.8045C33.3306 20.5114 32.7117 20.3648 31.9626 20.3648C31.0342 20.3485 30.2687 20.5847 29.6661 21.0733C29.0798 21.5619 28.7867 22.2378 28.7867 23.101C28.7867 23.8339 28.9902 24.3957 29.3974 24.7866C29.8209 25.1775 30.4072 25.5032 31.1564 25.7638C31.9055 26.0081 32.7687 26.2931 33.7459 26.6189C34.5603 26.912 35.2932 27.2541 35.9446 27.6449C36.5961 28.0358 37.101 28.5407 37.4593 29.1596C37.8339 29.7785 38.0212 30.5684 38.0212 31.5293C38.0212 32.3436 37.8095 33.1173 37.386 33.8502C36.9626 34.5668 36.3192 35.1531 35.456 35.6091C34.6091 36.0651 33.5424 36.2932 32.2557 36.2932ZM46.2572 36.2932C45.1008 36.2932 44.0747 36.0326 43.179 35.5114C42.2832 34.9739 41.5747 34.2329 41.0536 33.2883C40.5487 32.3436 40.2962 31.228 40.2962 29.9414C40.2962 28.671 40.5487 27.5635 41.0536 26.6189C41.5585 25.658 42.2588 24.9169 43.1545 24.3957C44.0666 23.8583 45.1171 23.5896 46.306 23.5896C47.4787 23.5896 48.4884 23.8583 49.3353 24.3957C50.1985 24.9169 50.8581 25.6091 51.3142 26.4723C51.7702 27.3355 51.9982 28.2638 51.9982 29.2573C51.9982 29.4365 51.9901 29.6156 51.9738 29.7948C51.9738 29.9739 51.9738 30.1775 51.9738 30.4055H42.3239C42.3728 31.3339 42.5845 32.1075 42.9591 32.7264C43.35 33.329 43.8304 33.785 44.4005 34.0945C44.9868 34.4039 45.6057 34.5586 46.2572 34.5586C47.1041 34.5586 47.8125 34.3632 48.3826 33.9723C48.9526 33.5814 49.3679 33.0521 49.6285 32.3844H51.6562C51.3305 33.5081 50.7034 34.4446 49.7751 35.1938C48.863 35.9267 47.6904 36.2932 46.2572 36.2932ZM46.2572 25.3241C45.28 25.3241 44.4086 25.6254 43.6431 26.228C42.894 26.8143 42.4624 27.6775 42.3484 28.8176H49.9705C49.9217 27.7264 49.5471 26.8713 48.8467 26.2524C48.1464 25.6335 47.2832 25.3241 46.2572 25.3241ZM58.7491 36.2932C57.7393 36.2932 56.9006 36.1221 56.2328 35.7801C55.565 35.4381 55.0683 34.9821 54.7426 34.412C54.4168 33.842 54.254 33.2231 54.254 32.5554C54.254 31.3176 54.7263 30.3648 55.6709 29.6971C56.6155 29.0293 57.9022 28.6954 59.5309 28.6954H62.8045V28.5488C62.8045 27.4902 62.5276 26.6922 61.9739 26.1547C61.4201 25.601 60.6791 25.3241 59.7507 25.3241C58.9527 25.3241 58.2605 25.5277 57.6742 25.9348C57.1041 26.3257 56.7458 26.9039 56.5993 27.6694H54.4983C54.5797 26.7899 54.8729 26.0488 55.3778 25.4462C55.8989 24.8436 56.5422 24.3876 57.3077 24.0782C58.0732 23.7524 58.8875 23.5896 59.7507 23.5896C61.4445 23.5896 62.7149 24.0456 63.5618 24.9576C64.425 25.8534 64.8566 27.0505 64.8566 28.5488V36H63.0243L62.9022 33.8257C62.5602 34.5098 62.0553 35.0961 61.3875 35.5847C60.7361 36.057 59.8566 36.2932 58.7491 36.2932ZM59.0667 34.5586C59.8484 34.5586 60.5162 34.355 61.0699 33.9479C61.64 33.5407 62.0716 33.0114 62.3647 32.3599C62.6579 31.7085 62.8045 31.0244 62.8045 30.3078V30.2834H59.7019C58.4966 30.2834 57.6416 30.4951 57.1367 30.9186C56.6481 31.3257 56.4038 31.8388 56.4038 32.4576C56.4038 33.0928 56.6318 33.6059 57.0879 33.9967C57.5602 34.3713 58.2198 34.5586 59.0667 34.5586ZM67.9352 36V23.8827H69.7918L69.9628 26.2036C70.3374 25.4055 70.9075 24.7703 71.6729 24.298C72.4384 23.8257 73.383 23.5896 74.5068 23.5896V25.7394H73.9449C73.2283 25.7394 72.5687 25.8697 71.9661 26.1303C71.3635 26.3746 70.883 26.798 70.5247 27.4006C70.1664 28.0032 69.9873 28.8339 69.9873 29.8925V36H67.9352ZM81.9269 36.2932C80.7705 36.2932 79.7282 36.0326 78.7998 35.5114C77.8878 34.9739 77.163 34.2329 76.6256 33.2883C76.1044 32.3274 75.8438 31.2117 75.8438 29.9414C75.8438 28.671 76.1044 27.5635 76.6256 26.6189C77.163 25.658 77.8878 24.9169 78.7998 24.3957C79.7282 23.8583 80.7705 23.5896 81.9269 23.5896C83.3601 23.5896 84.5653 23.9642 85.5425 24.7133C86.536 25.4625 87.163 26.4642 87.4236 27.7182H85.3226C85.1598 26.969 84.7607 26.3909 84.1256 25.9837C83.4904 25.5602 82.7493 25.3485 81.9024 25.3485C81.2184 25.3485 80.5751 25.5195 79.9725 25.8615C79.3699 26.2036 78.8813 26.7166 78.5067 27.4006C78.1321 28.0847 77.9448 28.9316 77.9448 29.9414C77.9448 30.9511 78.1321 31.798 78.5067 32.4821C78.8813 33.1661 79.3699 33.6873 79.9725 34.0456C80.5751 34.3876 81.2184 34.5586 81.9024 34.5586C82.7493 34.5586 83.4904 34.355 84.1256 33.9479C84.7607 33.5244 85.1598 32.93 85.3226 32.1645H87.4236C87.1793 33.386 86.5604 34.3795 85.5669 35.1449C84.5734 35.9104 83.3601 36.2932 81.9269 36.2932ZM90.2896 36V18.4104H92.3417V25.9593C92.7488 25.2101 93.327 24.6319 94.0762 24.2247C94.8254 23.8013 95.6397 23.5896 96.5192 23.5896C97.9199 23.5896 99.0436 24.0293 99.8905 24.9088C100.737 25.772 101.161 27.1075 101.161 28.9153V36H99.1332V29.1352C99.1332 26.6107 98.1153 25.3485 96.0795 25.3485C95.0208 25.3485 94.1332 25.7313 93.4166 26.4967C92.7 27.2459 92.3417 28.3208 92.3417 29.7215V36H90.2896ZM104.978 36.1222C104.571 36.1222 104.229 35.9919 103.952 35.7313C103.692 35.4544 103.562 35.1205 103.562 34.7296C103.562 34.3388 103.692 34.013 103.952 33.7524C104.229 33.4756 104.571 33.3371 104.978 33.3371C105.369 33.3371 105.695 33.4756 105.956 33.7524C106.233 34.013 106.371 34.3388 106.371 34.7296C106.371 35.1205 106.233 35.4544 105.956 35.7313C105.695 35.9919 105.369 36.1222 104.978 36.1222ZM109.75 36.1222C109.343 36.1222 109.001 35.9919 108.724 35.7313C108.463 35.4544 108.333 35.1205 108.333 34.7296C108.333 34.3388 108.463 34.013 108.724 33.7524C109.001 33.4756 109.343 33.3371 109.75 33.3371C110.141 33.3371 110.467 33.4756 110.727 33.7524C111.004 34.013 111.142 34.3388 111.142 34.7296C111.142 35.1205 111.004 35.4544 110.727 35.7313C110.467 35.9919 110.141 36.1222 109.75 36.1222ZM114.521 36.1222C114.114 36.1222 113.772 35.9919 113.495 35.7313C113.235 35.4544 113.105 35.1205 113.105 34.7296C113.105 34.3388 113.235 34.013 113.495 33.7524C113.772 33.4756 114.114 33.3371 114.521 33.3371C114.912 33.3371 115.238 33.4756 115.499 33.7524C115.776 34.013 115.914 34.3388 115.914 34.7296C115.914 35.1205 115.776 35.4544 115.499 35.7313C115.238 35.9919 114.912 36.1222 114.521 36.1222ZM119.293 36.1222C118.886 36.1222 118.544 35.9919 118.267 35.7313C118.006 35.4544 117.876 35.1205 117.876 34.7296C117.876 34.3388 118.006 34.013 118.267 33.7524C118.544 33.4756 118.886 33.3371 119.293 33.3371C119.684 33.3371 120.01 33.4756 120.27 33.7524C120.547 34.013 120.685 34.3388 120.685 34.7296C120.685 35.1205 120.547 35.4544 120.27 35.7313C120.01 35.9919 119.684 36.1222 119.293 36.1222Z" fill="#9F9F9F"/>
</svg>
